STARTFONT 2.3
FONT -FontForge-Fredoka One-Book-R-Normal--12-120-72-72-P-69-ISO10646-1
SIZE 12 72 72  4
FONTBOUNDINGBOX 17 15 -2 -3
COMMENT "Generated by fontforge, http://fontforge.sourceforge.net"
COMMENT "Copyright (c) 2011 Milena B Brandao (milenabbrandao@gmail.com), with Reserved Font Name "Fredoka""
STARTPROPERTIES 40
FOUNDRY "FontForge"
FAMILY_NAME "Fredoka One"
WEIGHT_NAME "Book"
SLANT "R"
SETWIDTH_NAME "Normal"
ADD_STYLE_NAME ""
PIXEL_SIZE 12
POINT_SIZE 120
RESOLUTION_X 72
RESOLUTION_Y 72
SPACING "P"
AVERAGE_WIDTH 69
CHARSET_REGISTRY "ISO10646"
CHARSET_ENCODING "1"
FONTNAME_REGISTRY ""
CHARSET_COLLECTIONS "ISO10646-1"
BITS_PER_PIXEL 4
FONT_NAME "FredokaOne-Regular"
FACE_NAME "Fredoka One"
COPYRIGHT "Copyright (c) 2011 Milena B Brandao (milenabbrandao@gmail.com), with Reserved Font Name "Fredoka""
FONT_VERSION "1.001"
FONT_ASCENT 10
FONT_DESCENT 2
UNDERLINE_POSITION -1
UNDERLINE_THICKNESS 1
X_HEIGHT 6
CAP_HEIGHT 8
RAW_ASCENT 800
RAW_DESCENT 200
NORM_SPACE 3
RELATIVE_WEIGHT 40
RELATIVE_SETWIDTH 50
SUPERSCRIPT_X 0
SUPERSCRIPT_Y 5
SUPERSCRIPT_SIZE 7
SUBSCRIPT_X 0
SUBSCRIPT_Y 1
SUBSCRIPT_SIZE 7
AVG_LOWERCASE_WIDTH 67
AVG_UPPERCASE_WIDTH 82
ENDPROPERTIES
CHARS 235
STARTCHAR space
ENCODING 32
SWIDTH 253 0
DWIDTH 3 0
BBX 1 1 0 0
BITMAP
00
ENDCHAR
STARTCHAR exclam
ENCODING 33
SWIDTH 267 0
DWIDTH 3 0
BBX 3 9 0 0
BITMAP
4C60
7FA0
7FA0
7FA0
7FA0
4C60
0310
7FA0
5F90
ENDCHAR
STARTCHAR quotedbl
ENCODING 34
SWIDTH 429 0
DWIDTH 5 0
BBX 5 5 0 4
BITMAP
6B1A80
AF3FC0
8F1EB0
6D0B80
130310
ENDCHAR
STARTCHAR numbersign
ENCODING 35
SWIDTH 749 0
DWIDTH 9 0
BBX 9 9 0 0
BITMAP
003B309900
007F40FB00
17CF88FC50
4FFFFFFFA0
01FB18F400
59FD9DFA20
BFFFFFFE30
07F40EB000
08D11E7000
ENDCHAR
STARTCHAR dollar
ENCODING 36
SWIDTH 475 0
DWIDTH 6 0
BBX 6 11 0 -1
BITMAP
003100
00D800
07ED50
5FDED0
8F5120
3EFE80
027CF4
8D49F5
4FFFC1
02EA00
00B700
ENDCHAR
STARTCHAR percent
ENCODING 37
SWIDTH 838 0
DWIDTH 10 0
BBX 10 11 0 -1
BITMAP
0000000400
08C8006B00
5FAF51E400
7D0D77B000
4FDF5E3000
05968A2630
0001E4FFF4
000996E1C8
002E25F8E7
009800AFC1
0031000000
ENDCHAR
STARTCHAR ampersand
ENCODING 38
SWIDTH 748 0
DWIDTH 9 0
BBX 9 11 0 -1
BITMAP
0003200000
03EFFB0000
0AF8CF4000
0BF6DF3000
08FFF80000
0BFF803600
7FEFE3EF10
AF7AFFFB00
8FEBFFFF70
1AFFE9CF90
0001000000
ENDCHAR
STARTCHAR quotesingle
ENCODING 39
SWIDTH 208 0
DWIDTH 3 0
BBX 3 5 0 4
BITMAP
6B10
AF30
8F10
6D00
1300
ENDCHAR
STARTCHAR parenleft
ENCODING 40
SWIDTH 384 0
DWIDTH 5 0
BBX 5 13 0 -3
BITMAP
001410
02DF60
0BF510
2F9000
6F5000
8F4000
9F3000
9F3000
7F4000
3F7000
0ED000
06FD40
005A30
ENDCHAR
STARTCHAR parenright
ENCODING 41
SWIDTH 384 0
DWIDTH 5 0
BBX 5 13 0 -3
BITMAP
230000
CF9000
2AF500
01FB00
00BE00
00AF20
009F30
009F30
00AF10
00DD00
04F800
9EE100
892000
ENDCHAR
STARTCHAR asterisk
ENCODING 42
SWIDTH 503 0
DWIDTH 6 0
BBX 6 6 0 3
BITMAP
00BC00
58FF85
BFFFFC
1CFFD2
2FEEF2
054450
ENDCHAR
STARTCHAR plus
ENCODING 43
SWIDTH 527 0
DWIDTH 6 0
BBX 6 7 0 0
BITMAP
001100
00BF10
13DF52
AFFFFF
5AEFA8
00CF10
005700
ENDCHAR
STARTCHAR comma
ENCODING 44
SWIDTH 238 0
DWIDTH 3 0
BBX 3 5 0 -2
BITMAP
1300
AF70
8F70
2F30
8700
ENDCHAR
STARTCHAR hyphen
ENCODING 45
SWIDTH 433 0
DWIDTH 5 0
BBX 5 3 0 1
BITMAP
488860
AFFFD0
255530
ENDCHAR
STARTCHAR period
ENCODING 46
SWIDTH 237 0
DWIDTH 3 0
BBX 3 3 0 0
BITMAP
1300
AF70
8F60
ENDCHAR
STARTCHAR slash
ENCODING 47
SWIDTH 526 0
DWIDTH 6 0
BBX 7 11 0 -1
BITMAP
00003200
0001EF10
0007FC00
000DF400
006FC000
00DF5000
05FD0000
0CF50000
5FD00000
BF600000
49000000
ENDCHAR
STARTCHAR zero
ENCODING 48
SWIDTH 608 0
DWIDTH 7 0
BBX 7 10 0 -1
BITMAP
02BDC500
1DFFFF30
6FD4BFA0
9F804FD0
AF702FF0
AF703FD0
7FC18FB0
2FFFFF50
05EFF900
00021000
ENDCHAR
STARTCHAR one
ENCODING 49
SWIDTH 407 0
DWIDTH 5 0
BBX 5 9 0 0
BITMAP
006C30
08FF60
8FFF60
9FEF60
01BF60
00BF60
00BF60
00BF60
009F40
ENDCHAR
STARTCHAR two
ENCODING 50
SWIDTH 609 0
DWIDTH 7 0
BBX 8 9 0 0
BITMAP
03BDB300
2EFFFF20
8FC4BF90
AF607FB0
2514EF80
019FFC10
2DFFA210
9FFFFFF1
7FFFFFE1
ENDCHAR
STARTCHAR three
ENCODING 51
SWIDTH 608 0
DWIDTH 7 0
BBX 7 10 0 -1
BITMAP
03BDC500
1EFFFF50
3FC39FB0
023ADF90
004FFF20
1416BFC0
AF804FE0
5FFEFF90
07EFFA10
00020000
ENDCHAR
STARTCHAR four
ENCODING 52
SWIDTH 592 0
DWIDTH 7 0
BBX 7 9 0 0
BITMAP
08B24C50
0EF48F90
2FF18F90
6FC08F90
AFC8CF90
CFFFFF90
3777BF90
00008F90
00005E70
ENDCHAR
STARTCHAR five
ENCODING 53
SWIDTH 530 0
DWIDTH 6 0
BBX 6 10 0 -1
BITMAP
0ACCC8
4FFFFC
6FC442
8FEB60
9FFFF7
3B88FE
2813FF
BFFFFA
3CFFB1
002100
ENDCHAR
STARTCHAR six
ENCODING 54
SWIDTH 560 0
DWIDTH 7 0
BBX 7 10 0 -1
BITMAP
0018BB10
03EFFF20
0DFC6400
5FD41000
9FFFF700
AFEAFF30
9F80CF50
4FFDFF20
07FFE500
00020000
ENDCHAR
STARTCHAR seven
ENCODING 55
SWIDTH 561 0
DWIDTH 7 0
BBX 7 9 0 0
BITMAP
7CCCCB40
CFFFFF80
2557FF30
000BFB00
005FF200
00DF8000
04FE1000
08FA0000
07F70000
ENDCHAR
STARTCHAR eight
ENCODING 56
SWIDTH 582 0
DWIDTH 7 0
BBX 7 10 0 -1
BITMAP
03BEB300
2EFFFE10
6FD2DF50
4FFAFF30
1EFFFE10
8FC6CF80
AF808F90
5FFDFF50
07EFE700
00020000
ENDCHAR
STARTCHAR nine
ENCODING 57
SWIDTH 560 0
DWIDTH 7 0
BBX 7 9 0 0
BITMAP
05CDA200
4FFFFD00
9F91DF40
8FC7FF60
1DFFFF50
0157FF20
024CFB00
5FFFE200
5FEA2000
ENDCHAR
STARTCHAR colon
ENCODING 58
SWIDTH 238 0
DWIDTH 3 0
BBX 3 6 0 0
BITMAP
9F60
9F70
0200
1300
AF70
8F60
ENDCHAR
STARTCHAR semicolon
ENCODING 59
SWIDTH 237 0
DWIDTH 3 0
BBX 3 8 0 -2
BITMAP
9F60
9F70
0200
1300
AF70
8F70
2F30
8700
ENDCHAR
STARTCHAR less
ENCODING 60
SWIDTH 627 0
DWIDTH 8 0
BBX 8 9 0 0
BITMAP
00000020
00004CF2
002AFFC1
07EFE600
AFF91000
7FFC4000
03CFFA20
0006EFE3
000019D1
ENDCHAR
STARTCHAR equal
ENCODING 61
SWIDTH 478 0
DWIDTH 6 0
BBX 6 5 0 0
BITMAP
7DDDC4
8EEEE5
244441
AFFFF6
478872
ENDCHAR
STARTCHAR greater
ENCODING 62
SWIDTH 627 0
DWIDTH 8 0
BBX 8 9 0 0
BITMAP
12000000
9F810000
6FFE6000
02AFFC30
0004DFF3
0018FFD2
05EFF810
9FFB2000
7C400000
ENDCHAR
STARTCHAR question
ENCODING 63
SWIDTH 512 0
DWIDTH 6 0
BBX 6 9 0 0
BITMAP
09EE80
8FFFF7
9F23FC
0119FA
00CFD2
00AC00
002200
01FF10
01DE10
ENDCHAR
STARTCHAR at
ENCODING 64
SWIDTH 908 0
DWIDTH 11 0
BBX 11 10 0 -2
BITMAP
004BEFD93000
07FD98AEF500
2FA28997BE10
8F1CFEF82F60
AD2F64F60E80
AE1FDDF40F80
7F36CCF38F40
1ED303FFF900
04EFF7373000
001684000000
ENDCHAR
STARTCHAR A
ENCODING 65
SWIDTH 765 0
DWIDTH 9 0
BBX 9 10 0 -1
BITMAP
0002B40000
000BFD0000
003FFF6000
00AFEFD000
02FF4EF500
0AFEADFC00
2FFFFFFF40
9FB2229FB0
8F40002EB0
0100000100
ENDCHAR
STARTCHAR B
ENCODING 66
SWIDTH 646 0
DWIDTH 8 0
BBX 8 9 0 0
BITMAP
4CCCC910
8FFFFFC0
8FB56FF2
8F927FF1
8F97FFD0
8F914DF5
8FA23DF6
8FFFFFE2
5EFFFC40
ENDCHAR
STARTCHAR C
ENCODING 67
SWIDTH 679 0
DWIDTH 8 0
BBX 8 10 0 -1
BITMAP
0039CC81
06FFFFFB
3FFA56C5
8FB00000
AF700000
9FA00000
4FF71283
09FFFFFB
006DFFC3
00001000
ENDCHAR
STARTCHAR D
ENCODING 68
SWIDTH 704 0
DWIDTH 8 0
BBX 9 9 0 0
BITMAP
4CCCB60000
8FFFFFB100
8FB58EF900
8F9005FE00
8F9000FF20
8F9003FF10
8FA25DFA00
8FFFFFD200
6FFFE91000
ENDCHAR
STARTCHAR E
ENCODING 69
SWIDTH 638 0
DWIDTH 8 0
BBX 8 9 0 0
BITMAP
4CCCCCC2
8FFFFFF5
8FB55540
8FC77500
8FFFFF00
8FDAA800
8FA22210
8FFFFFF4
5FFFFFE3
ENDCHAR
STARTCHAR F
ENCODING 70
SWIDTH 637 0
DWIDTH 8 0
BBX 8 9 0 0
BITMAP
4CCCCCC2
8FFFFFF5
8FB55550
8FC77500
8FFFFF00
8FDAA800
8F900000
8F900000
5E700000
ENDCHAR
STARTCHAR G
ENCODING 71
SWIDTH 714 0
DWIDTH 9 0
BBX 9 10 0 -1
BITMAP
004BED8100
07FFFFFB00
3FF935B400
9FA0244300
AF70BFFF10
9FA047FF10
4FF713FF10
09FFFFFF10
007EFFD400
0000110000
ENDCHAR
STARTCHAR H
ENCODING 72
SWIDTH 699 0
DWIDTH 8 0
BBX 8 9 0 0
BITMAP
4B5001B9
8F9003FE
8F9003FE
8FB447FE
8FFFFFFE
8FC779FE
8F9003FE
8F9003FE
5E7002EB
ENDCHAR
STARTCHAR I
ENCODING 73
SWIDTH 257 0
DWIDTH 3 0
BBX 3 9 0 0
BITMAP
4B50
8F90
8F90
8F90
8F90
8F90
8F90
8F90
5E70
ENDCHAR
STARTCHAR J
ENCODING 74
SWIDTH 549 0
DWIDTH 7 0
BBX 7 10 0 -1
BITMAP
00009A00
0000FF20
0000FF20
0000FF20
0000FF20
0000FF20
4B24FF00
BFFFF900
2BFFA100
00100000
ENDCHAR
STARTCHAR K
ENCODING 75
SWIDTH 639 0
DWIDTH 8 0
BBX 8 9 0 0
BITMAP
4B500AA0
8F909FF2
8F97FF50
8FDFF600
8FFF8000
8FEFE400
8F99FE30
8F90BFE1
5E701CD1
ENDCHAR
STARTCHAR L
ENCODING 76
SWIDTH 587 0
DWIDTH 7 0
BBX 7 9 0 0
BITMAP
4B500000
8F900000
8F900000
8F900000
8F900000
8F900000
8F900000
8FECCC70
5FFFFF90
ENDCHAR
STARTCHAR M
ENCODING 77
SWIDTH 870 0
DWIDTH 10 0
BBX 10 9 0 0
BITMAP
4B600002B9
8FF4000CFE
8FFD109FFE
8FFFB5FFFE
8FADFFF8FE
8F94FFA2FE
8F906912FE
8F900002FE
6E700001EB
ENDCHAR
STARTCHAR N
ENCODING 78
SWIDTH 720 0
DWIDTH 9 0
BBX 9 9 0 0
BITMAP
4B60009B10
8FF300EF20
8FFD10EF20
8FFFA0EF20
8FBEF7EF20
8F94FFFF20
8F908FFF20
8F900BFF20
6F7001DE10
ENDCHAR
STARTCHAR O
ENCODING 79
SWIDTH 775 0
DWIDTH 9 0
BBX 9 10 0 -1
BITMAP
004BDC7000
07FFFFFB00
3FF947EF70
8FB0006FD0
AF70003FF0
9F90005FD0
5FF613DF90
0AFFFFFD10
008EFFB200
0000210000
ENDCHAR
STARTCHAR P
ENCODING 80
SWIDTH 632 0
DWIDTH 8 0
BBX 8 9 0 0
BITMAP
4CCCB600
8FFFFFA0
8FB57FF2
8F900DF4
8FC8AFF1
8FFFFF60
8FD98300
8F900000
5E700000
ENDCHAR
STARTCHAR Q
ENCODING 81
SWIDTH 830 0
DWIDTH 10 0
BBX 10 10 0 -1
BITMAP
004BDC7000
07FFFFFB00
3FF947EF70
8FB0006FD0
AF70003FF0
9F90005FD0
5FF613DFB0
0AFFFFFFF9
008EFFA8F7
0000200010
ENDCHAR
STARTCHAR R
ENCODING 82
SWIDTH 631 0
DWIDTH 8 0
BBX 8 9 0 0
BITMAP
4CCCB600
8FFFFFA0
8FB57FF2
8F900DF4
8FC8AFF1
8FFFFF80
8FD9BFC0
8F902FF3
5E700AE3
ENDCHAR
STARTCHAR S
ENCODING 83
SWIDTH 583 0
DWIDTH 7 0
BBX 7 10 0 -1
BITMAP
05CDC500
3FFFFF10
7FB17700
6FE84000
1BFFFD20
0038EF90
5E508FA0
8FFDFF60
08EFE700
00010000
ENDCHAR
STARTCHAR T
ENCODING 84
SWIDTH 731 0
DWIDTH 9 0
BBX 9 9 0 0
BITMAP
8CCCCCCC50
AEEFFEEE70
000AF60000
000AF60000
000AF60000
000AF60000
000AF60000
000AF60000
0008F40000
ENDCHAR
STARTCHAR U
ENCODING 85
SWIDTH 726 0
DWIDTH 9 0
BBX 9 10 0 -1
BITMAP
4C50009B10
8F9000DF30
8F9000DF40
8F9000DF40
8F9000DF30
6FB000FF20
3FF418FD00
0AFFFFF600
01AFFE7000
0001200000
ENDCHAR
STARTCHAR V
ENCODING 86
SWIDTH 783 0
DWIDTH 9 0
BBX 10 9 0 0
BITMAP
5C20000A90
AF90003FF1
4FF100AF90
0BF802FF20
04FE19FA00
00BF8EF200
004FFFA000
000CFF3000
0003E80000
ENDCHAR
STARTCHAR W
ENCODING 87
SWIDTH 999 0
DWIDTH 12 0
BBX 12 9 0 0
BITMAP
6C20099002C6
BF804FF308FA
6FD08FF80DF5
1FF2DFFD3FE1
0AFBFDEFBFA0
05FFF89FFF50
01EFF34FFE00
00AFD00EF900
003E7007E300
ENDCHAR
STARTCHAR X
ENCODING 88
SWIDTH 741 0
DWIDTH 9 0
BBX 9 10 0 -1
BITMAP
6E40005E50
AFE203EF80
1CFD3EFB00
01DFFFC100
003FFF2000
01CFFFB000
0BFE5EFA00
9FE304FF70
7F50006F60
0100000100
ENDCHAR
STARTCHAR Y
ENCODING 89
SWIDTH 686 0
DWIDTH 8 0
BBX 8 9 0 0
BITMAP
5D2001C8
AFC008FD
2EF63FF5
06FECFA0
00BFFE10
002FF500
000EF300
000EF300
000CE100
ENDCHAR
STARTCHAR Z
ENCODING 90
SWIDTH 643 0
DWIDTH 8 0
BBX 8 9 0 0
BITMAP
6CCCCCA1
AFFFFFF2
1446FF90
000BFD10
007FF300
03FF7000
1DFB1100
8FFFFFF4
7FFFFFF4
ENDCHAR
STARTCHAR bracketleft
ENCODING 91
SWIDTH 348 0
DWIDTH 4 0
BBX 4 13 0 -3
BITMAP
1443
7FFF
8FA5
8F60
8F60
8F60
8F60
8F60
8F60
8F60
8F60
8FFE
4BB9
ENDCHAR
STARTCHAR backslash
ENCODING 92
SWIDTH 528 0
DWIDTH 6 0
BBX 7 11 0 -1
BITMAP
15000000
BF400000
6FC00000
1EF40000
07FB0000
01EF3000
008FA000
001EF300
0008FA00
0001FF10
00006700
ENDCHAR
STARTCHAR bracketright
ENCODING 93
SWIDTH 348 0
DWIDTH 4 0
BBX 4 13 0 -3
BITMAP
2441
CFFA
49FB
04FB
04FB
04FB
04FB
04FB
04FB
04FB
04FB
BFFA
7BB5
ENDCHAR
STARTCHAR asciicircum
ENCODING 94
SWIDTH 526 0
DWIDTH 6 0
BBX 6 4 0 3
BITMAP
003500
03EF70
3EECF7
4E41C8
ENDCHAR
STARTCHAR underscore
ENCODING 95
SWIDTH 826 0
DWIDTH 10 0
BBX 10 2 0 -3
BITMAP
AEEEEEEEE9
8BBBBBBBB7
ENDCHAR
STARTCHAR grave
ENCODING 96
SWIDTH 482 0
DWIDTH 6 0
BBX 4 4 1 6
BITMAP
2200
BFC5
5BF8
0011
ENDCHAR
STARTCHAR a
ENCODING 97
SWIDTH 596 0
DWIDTH 7 0
BBX 7 7 0 0
BITMAP
00241410
09FFEFA0
5FFDFFA0
AF809FA0
9FB3CFA0
3FFFFFA0
04CE9E80
ENDCHAR
STARTCHAR b
ENCODING 98
SWIDTH 592 0
DWIDTH 7 0
BBX 7 10 0 0
BITMAP
14100000
7F800000
8F900000
8F933000
8FEFFA00
8FFDFF70
8FB06FB0
8FD39FA0
8FFFFF40
6EADD500
ENDCHAR
STARTCHAR c
ENCODING 99
SWIDTH 517 0
DWIDTH 6 0
BBX 6 7 0 0
BITMAP
003530
09FFFA
6FFCF9
AF8020
9FB262
3FFFFC
04CFD5
ENDCHAR
STARTCHAR d
ENCODING 100
SWIDTH 598 0
DWIDTH 7 0
BBX 7 10 0 0
BITMAP
00000410
00006FA0
00006FB0
00246FB0
08FFEFB0
4FFDFFB0
9F908FB0
8FB2BFB0
2EFFFFB0
04CEAE80
ENDCHAR
STARTCHAR e
ENCODING 101
SWIDTH 573 0
DWIDTH 7 0
BBX 7 8 0 -1
BITMAP
00365100
0AFFFD10
6FE8DF70
AFC8CF70
9FD88710
4FFBBE10
07EFFD20
00022000
ENDCHAR
STARTCHAR f
ENCODING 102
SWIDTH 450 0
DWIDTH 5 0
BBX 6 10 0 0
BITMAP
001320
02DFD0
09FE90
1CF840
BFFFF3
8EFDB1
0BF600
0BF600
0BF600
09F400
ENDCHAR
STARTCHAR g
ENCODING 103
SWIDTH 585 0
DWIDTH 7 0
BBX 7 10 0 -3
BITMAP
00331510
09FFEF80
6FFCFF80
AF70AF80
8FB4DF80
2EFFFF80
03ABBF80
0874DF60
1FFFFC00
029A7100
ENDCHAR
STARTCHAR h
ENCODING 104
SWIDTH 605 0
DWIDTH 7 0
BBX 7 10 0 0
BITMAP
14100000
7F800000
8F900000
8F923000
8FDFFB10
8FFDFF70
8FA06FB0
8F905FC0
8F905FC0
6F703E90
ENDCHAR
STARTCHAR i
ENCODING 105
SWIDTH 255 0
DWIDTH 3 0
BBX 3 10 0 0
BITMAP
1410
7F80
4C50
1410
7F80
8F90
8F90
8F90
8F90
6F70
ENDCHAR
STARTCHAR j
ENCODING 106
SWIDTH 252 0
DWIDTH 3 0
BBX 5 13 -2 -3
BITMAP
001310
007F80
004C50
001510
007F80
008F80
008F80
008F80
008F80
008F80
16DF60
8FFC00
4A7100
ENDCHAR
STARTCHAR k
ENCODING 107
SWIDTH 536 0
DWIDTH 6 0
BBX 7 10 0 0
BITMAP
14100000
7F800000
8F900000
8F900000
8F95E700
8FDFF900
8FFF9000
8FFFD200
8FACFE20
6F71BD10
ENDCHAR
STARTCHAR l
ENCODING 108
SWIDTH 327 0
DWIDTH 4 0
BBX 4 10 0 0
BITMAP
1410
7F80
8F90
8F90
8F90
8F90
8F90
8F90
6FFA
1CF9
ENDCHAR
STARTCHAR m
ENCODING 109
SWIDTH 851 0
DWIDTH 10 0
BBX 10 7 0 0
BITMAP
1413401410
7FCFFAEFE2
8FFDFFEEF8
8FA0FF46FA
8F90EF36FB
8F90EF36FB
6F70CE14E9
ENDCHAR
STARTCHAR n
ENCODING 110
SWIDTH 606 0
DWIDTH 7 0
BBX 7 7 0 0
BITMAP
14133000
7FDFFC10
8FFDFF70
8FA06FB0
8F905FC0
8F905FC0
6E603E90
ENDCHAR
STARTCHAR o
ENCODING 111
SWIDTH 600 0
DWIDTH 7 0
BBX 7 8 0 -1
BITMAP
00364000
09FFFC10
6FFAEF90
AF805FD0
9FA18FC0
3FFFFF60
05DFE700
00010000
ENDCHAR
STARTCHAR p
ENCODING 112
SWIDTH 582 0
DWIDTH 7 0
BBX 7 10 0 -3
BITMAP
14133000
7FEFF900
8FFCFF50
8FA07F90
8FD4BF80
8FFFFE20
8FBBA300
8F800000
8F800000
4B400000
ENDCHAR
STARTCHAR q
ENCODING 113
SWIDTH 582 0
DWIDTH 7 0
BBX 7 10 0 -3
BITMAP
00331410
09FFEF70
6FFCFF80
AF70AF80
8FB4DF80
2EFFFF80
03ABBF80
00008F80
00008F70
00004B40
ENDCHAR
STARTCHAR r
ENCODING 114
SWIDTH 457 0
DWIDTH 5 0
BBX 6 7 0 0
BITMAP
141440
7FEFF3
8FFBB1
8F9000
8F9000
8F9000
6F7000
ENDCHAR
STARTCHAR s
ENCODING 115
SWIDTH 489 0
DWIDTH 6 0
BBX 6 8 0 -1
BITMAP
026620
3FFFF3
7FB570
3FFFA1
06BEF7
8FACF7
5DFFB1
001100
ENDCHAR
STARTCHAR t
ENCODING 116
SWIDTH 449 0
DWIDTH 5 0
BBX 6 9 0 0
BITMAP
037100
0BF500
2CF840
CFFFF2
8EFDB1
0BF600
0BF600
08FFB0
01BEB0
ENDCHAR
STARTCHAR u
ENCODING 117
SWIDTH 606 0
DWIDTH 7 0
BBX 7 7 0 0
BITMAP
15100420
7F804FC0
8F905FC0
8F905FC0
6FC39FC0
1EFFFFC0
04CD9E90
ENDCHAR
STARTCHAR v
ENCODING 118
SWIDTH 638 0
DWIDTH 8 0
BBX 8 7 0 0
BITMAP
15000250
BF600BF5
7FD04FF2
0DF7CF80
04FFFD10
00AFF500
002EB000
ENDCHAR
STARTCHAR w
ENCODING 119
SWIDTH 793 0
DWIDTH 10 0
BBX 10 7 0 0
BITMAP
1500310240
BF54FC0CF4
7FBAFF5FE1
2FFEFFEF90
0AFFCFFF30
04FF5CFC00
00BD05E500
ENDCHAR
STARTCHAR x
ENCODING 120
SWIDTH 567 0
DWIDTH 7 0
BBX 7 7 0 0
BITMAP
15000500
AF80BF70
5FFDFE30
06FFF300
0BFFF800
9FE9FF60
7E406E40
ENDCHAR
STARTCHAR y
ENCODING 121
SWIDTH 604 0
DWIDTH 7 0
BBX 7 10 0 -3
BITMAP
15000420
AF702FE0
5FE19FB0
0CFAEF40
03FFFC00
009FF500
005FD000
00CF7000
03FE1000
01A70000
ENDCHAR
STARTCHAR z
ENCODING 122
SWIDTH 586 0
DWIDTH 7 0
BBX 7 7 0 0
BITMAP
15555500
6FFFFF70
3BCEFE30
007FE300
09FE4200
8FFFFF90
7FFFFF90
ENDCHAR
STARTCHAR braceleft
ENCODING 123
SWIDTH 381 0
DWIDTH 5 0
BBX 5 13 0 -3
BITMAP
001400
01DF50
06F910
07F400
07F400
1AF300
CFC000
6DF100
07F400
06F400
06F500
03FF40
006A30
ENDCHAR
STARTCHAR bar
ENCODING 124
SWIDTH 217 0
DWIDTH 3 0
BBX 3 13 0 -3
BITMAP
1300
7F10
8F20
8F20
8F20
8F20
8F20
8F20
8F20
8F20
8F20
8F20
4B00
ENDCHAR
STARTCHAR braceright
ENCODING 125
SWIDTH 381 0
DWIDTH 5 0
BBX 5 13 0 -3
BITMAP
230000
CF8000
4DE000
0BF000
0BF000
09F400
04FF50
08FA20
0BF000
0BF000
0BF000
BFC000
792000
ENDCHAR
STARTCHAR asciitilde
ENCODING 126
SWIDTH 651 0
DWIDTH 8 0
BBX 7 4 0 1
BITMAP
02760530
2EFFEFC0
3E9BFD30
01001000
ENDCHAR
STARTCHAR exclamdown
ENCODING 161
SWIDTH 268 0
DWIDTH 3 0
BBX 3 10 0 -3
BITMAP
0100
6F90
6FA0
0200
5E80
7FA0
7FA0
7FA0
7FA0
3B60
ENDCHAR
STARTCHAR cent
ENCODING 162
SWIDTH 434 0
DWIDTH 5 0
BBX 5 9 0 -1
BITMAP
00A800
00C900
09FF70
7FDDA0
AF2000
7FBB80
1BFFA0
00CA00
00A800
ENDCHAR
STARTCHAR sterling
ENCODING 163
SWIDTH 675 0
DWIDTH 8 0
BBX 8 9 0 0
BITMAP
0029CB60
02EFFFF8
09FA35C5
0BF51000
BFFFF200
5AFD7100
06FA0000
0CFFEEEB
0CFFFFFB
ENDCHAR
STARTCHAR currency
ENCODING 164
SWIDTH 677 0
DWIDTH 8 0
BBX 8 10 0 0
BITMAP
02000011
8E4223DA
3EFFFFF5
1EFBBFF2
5F8006F7
6F6004F8
4FB109F6
0DFFFFF1
6FECCEF8
6B0000A8
ENDCHAR
STARTCHAR yen
ENCODING 165
SWIDTH 677 0
DWIDTH 8 0
BBX 8 9 0 0
BITMAP
4B2001B6
AFB009FC
2EF53FF4
07FDCF90
02EFFF40
09FFFFB0
014FF520
09FFFFC0
001CD100
ENDCHAR
STARTCHAR brokenbar
ENCODING 166
SWIDTH 215 0
DWIDTH 3 0
BBX 3 13 0 -3
BITMAP
1300
7F10
8F10
8F10
8F10
7F10
0200
4B00
8F10
8F10
8F10
8F10
4900
ENDCHAR
STARTCHAR section
ENCODING 167
SWIDTH 560 0
DWIDTH 7 0
BBX 7 13 0 -3
BITMAP
00131000
09FFF700
5FEBFB00
8F903100
3FFD9300
4FFFFF20
8F91CF60
5FE9EF40
08EFFF10
0315DF50
8F93CF50
5FFFFC10
039A7100
ENDCHAR
STARTCHAR dieresis
ENCODING 168
SWIDTH 489 0
DWIDTH 6 0
BBX 6 3 0 7
BITMAP
141032
7F94FC
5D62C9
ENDCHAR
STARTCHAR copyright
ENCODING 169
SWIDTH 711 0
DWIDTH 9 0
BBX 9 8 0 1
BITMAP
02ADED8000
2E7565B900
896FEC1F10
A6E6010D30
A6D7120D20
7A5FFC2E00
1E8576C800
029CCB5000
ENDCHAR
STARTCHAR ordfeminine
ENCODING 170
SWIDTH 445 0
DWIDTH 5 0
BBX 5 5 0 4
BITMAP
047560
5FFFD0
AE1CD0
8FAFD0
1AEBB0
ENDCHAR
STARTCHAR guillemotleft
ENCODING 171
SWIDTH 668 0
DWIDTH 8 0
BBX 8 7 0 0
BITMAP
00020021
01BF24EA
1BFA4EF5
AFB2EF50
7FD3DF90
08FD2DF8
007C11C7
ENDCHAR
STARTCHAR logicalnot
ENCODING 172
SWIDTH 526 0
DWIDTH 6 0
BBX 7 5 0 1
BITMAP
24444300
CFFFFF20
8CCCDF20
00007F20
00002700
ENDCHAR
STARTCHAR registered
ENCODING 174
SWIDTH 711 0
DWIDTH 9 0
BBX 9 8 0 1
BITMAP
02ADED8000
2E8875B900
895FDE2E10
A65E6F2D30
A65FED0D20
7A4D2F4E00
1E8537D800
029CCB5000
ENDCHAR
STARTCHAR degree
ENCODING 176
SWIDTH 407 0
DWIDTH 5 0
BBX 5 6 0 4
BITMAP
012000
2DFD10
9D4E70
9D6E70
2DFB10
001000
ENDCHAR
STARTCHAR plusminus
ENCODING 177
SWIDTH 505 0
DWIDTH 6 0
BBX 6 7 0 0
BITMAP
005500
13DE31
AFFFFB
59EF95
00AA00
39AAA4
6FFFF7
ENDCHAR
STARTCHAR twosuperior
ENCODING 178
SWIDTH 455 0
DWIDTH 5 0
BBX 6 7 0 2
BITMAP
1AEC30
7FDFC0
AF1CF0
14AFA0
4EFE60
AFFFF4
266661
ENDCHAR
STARTCHAR threesuperior
ENCODING 179
SWIDTH 457 0
DWIDTH 5 0
BBX 6 7 0 2
BITMAP
09ED40
5FBEE0
165DD0
01CFC0
9F3BF2
5FFFB0
037500
ENDCHAR
STARTCHAR acute
ENCODING 180
SWIDTH 605 0
DWIDTH 7 0
BBX 5 4 1 6
BITMAP
000300
19EF40
1FD910
010000
ENDCHAR
STARTCHAR mu
ENCODING 181
SWIDTH 601 0
DWIDTH 7 0
BBX 7 10 0 -3
BITMAP
14100520
7F805FB0
8F805FB0
8F805FB0
8FC3AFB0
8FFFFFB0
8FDD8D80
8F800000
8F800000
39300000
ENDCHAR
STARTCHAR paragraph
ENCODING 182
SWIDTH 614 0
DWIDTH 7 0
BBX 7 11 0 -3
BITMAP
03555520
6FFFDFA0
9FFF2FA0
8FFF2FA0
2AEF2FA0
008F2FA0
008F2FA0
008F2FA0
008F2FA0
007F2EA0
004B0960
ENDCHAR
STARTCHAR periodcentered
ENCODING 183
SWIDTH 237 0
DWIDTH 3 0
BBX 3 3 0 2
BITMAP
6C40
AF80
2610
ENDCHAR
STARTCHAR cedilla
ENCODING 184
SWIDTH 559 0
DWIDTH 7 0
BBX 3 4 2 -3
BITMAP
3400
9E50
AE40
2300
ENDCHAR
STARTCHAR onesuperior
ENCODING 185
SWIDTH 321 0
DWIDTH 4 0
BBX 4 7 0 2
BITMAP
05D3
6FF6
AFF6
06F6
06F6
06F5
0161
ENDCHAR
STARTCHAR ordmasculine
ENCODING 186
SWIDTH 439 0
DWIDTH 5 0
BBX 5 6 0 3
BITMAP
037400
4FFF70
AE1AE0
8F7DC0
1CFE40
001000
ENDCHAR
STARTCHAR guillemotright
ENCODING 187
SWIDTH 669 0
DWIDTH 8 0
BBX 8 7 0 0
BITMAP
02002000
AE42EC10
5FE4AFC1
04FE2AFA
08FD2DF7
8FD2DF80
7C11C800
ENDCHAR
STARTCHAR onequarter
ENCODING 188
SWIDTH 786 0
DWIDTH 9 0
BBX 9 11 0 -1
BITMAP
0020004000
09F103E100
4FF20B7000
05F24D0000
04F2C60000
02B6D6D9A0
000D5ABAB0
006C0EDEB0
00D4089DB0
06B0000990
0220000000
ENDCHAR
STARTCHAR onehalf
ENCODING 189
SWIDTH 804 0
DWIDTH 10 0
BBX 9 11 0 -1
BITMAP
0020004000
09F103E100
4FF20B7000
05F24D0000
04F2C60000
02B6D7FE30
000D5EACA0
006C066E80
00D409FE50
06B00DFFD0
0220000000
ENDCHAR
STARTCHAR threequarters
ENCODING 190
SWIDTH 842 0
DWIDTH 10 0
BBX 10 11 0 -1
BITMAP
0031001300
1CFD108A00
1A5F42E200
02CF399000
5F6F8E2000
09DAA8B8E5
0003E2F6F6
000B74FCF6
004E1299F6
00B60000D5
0030000000
ENDCHAR
STARTCHAR questiondown
ENCODING 191
SWIDTH 511 0
DWIDTH 6 0
BBX 6 10 0 -3
BITMAP
003400
00FF30
00AC10
001200
02EF00
3EFB00
9F6052
9F96FD
3EFFF7
028950
ENDCHAR
STARTCHAR Agrave
ENCODING 192
SWIDTH 765 0
DWIDTH 9 0
BBX 9 13 0 -1
BITMAP
0017200000
007FFC0000
0016AB0000
0002B40000
000BFD0000
003FFF6000
00AFEFD000
02FF4EF500
0AFEADFC00
2FFFFFFF40
9FB2229FB0
8F40002EB0
0100000100
ENDCHAR
STARTCHAR Aacute
ENCODING 193
SWIDTH 765 0
DWIDTH 9 0
BBX 9 13 0 -1
BITMAP
0000484000
000BFFA000
0006940000
0002B40000
000BFD0000
003FFF6000
00AFEFD000
02FF4EF500
0AFEADFC00
2FFFFFFF40
9FB2229FB0
8F40002EB0
0100000100
ENDCHAR
STARTCHAR Acircumflex
ENCODING 194
SWIDTH 765 0
DWIDTH 9 0
BBX 9 13 0 -1
BITMAP
0015961000
00BFFFE000
0037265000
0002B40000
000BFD0000
003FFF6000
00AFEFD000
02FF4EF500
0AFEADFC00
2FFFFFFF40
9FB2229FB0
8F40002EB0
0100000100
ENDCHAR
STARTCHAR Atilde
ENCODING 195
SWIDTH 765 0
DWIDTH 9 0
BBX 9 13 0 -1
BITMAP
0029747000
00AFFFC000
0033371000
0002B40000
000BFD0000
003FFF6000
00AFEFD000
02FF4EF500
0AFEADFC00
2FFFFFFF40
9FB2229FB0
8F40002EB0
0100000100
ENDCHAR
STARTCHAR Adieresis
ENCODING 196
SWIDTH 765 0
DWIDTH 9 0
BBX 9 13 0 -1
BITMAP
0088069100
01FF1CF400
0055046100
0002B40000
000BFD0000
003FFF6000
00AFEFD000
02FF4EF500
0AFEADFC00
2FFFFFFF40
9FB2229FB0
8F40002EB0
0100000100
ENDCHAR
STARTCHAR Aring
ENCODING 197
SWIDTH 765 0
DWIDTH 9 0
BBX 9 12 0 -1
BITMAP
0007DA0000
000D0C1000
0009DB0000
000BFD0000
003FFF5000
00AFEFD000
02FF4EF500
0AFEADFC00
2FFFFFFF40
9FB2229FB0
8F40002EB0
0100000100
ENDCHAR
STARTCHAR AE
ENCODING 198
SWIDTH 1148 0
DWIDTH 14 0
BBX 14 9 0 0
BITMAP
0000007CCCCCC4
000007FFFFFFF6
00006FFFD55541
0004FFDFD77600
003EFA6FFFFF20
02EFF9BFEAA900
2DFFFFFFC22220
CFD4338FFFFFF6
AD20003EFFFFF5
ENDCHAR
STARTCHAR Ccedilla
ENCODING 199
SWIDTH 679 0
DWIDTH 8 0
BBX 8 12 0 -3
BITMAP
003ADC81
07FFFFFB
3FFA46C5
9FB00000
AF700000
9FA00000
4FF71293
09FFFFFB
006DFFB3
0002DC00
0002CC00
00004100
ENDCHAR
STARTCHAR Egrave
ENCODING 200
SWIDTH 638 0
DWIDTH 8 0
BBX 8 12 0 0
BITMAP
00361000
00AFF900
0027C700
4CCCCCC2
8FFFFFF5
8FB55540
8FC77500
8FFFFF00
8FDAA800
8FA22210
8FFFFFF4
5FFFFFE3
ENDCHAR
STARTCHAR Eacute
ENCODING 201
SWIDTH 638 0
DWIDTH 8 0
BBX 8 12 0 0
BITMAP
00027600
007FFD00
003A5100
4CCCCCC2
8FFFFFF5
8FB55540
8FC77500
8FFFFF00
8FDAA800
8FA22210
8FFFFFF4
5FFFFFE3
ENDCHAR
STARTCHAR Ecircumflex
ENCODING 202
SWIDTH 638 0
DWIDTH 8 0
BBX 8 12 0 0
BITMAP
00498300
07FFFF30
01834700
4CCCCCC2
8FFFFFF5
8FB55540
8FC77500
8FFFFF00
8FDAA800
8FA22210
8FFFFFF4
5FFFFFE3
ENDCHAR
STARTCHAR Edieresis
ENCODING 203
SWIDTH 638 0
DWIDTH 8 0
BBX 8 12 0 0
BITMAP
05A23A40
0BF67F90
03612620
4CCCCCC2
8FFFFFF5
8FB55540
8FC77500
8FFFFF00
8FDAA800
8FA22210
8FFFFFF4
5FFFFFE3
ENDCHAR
STARTCHAR Igrave
ENCODING 204
SWIDTH 267 0
DWIDTH 3 0
BBX 4 12 -1 0
BITMAP
2620
8FFB
16BA
03B6
07FA
07FA
07FA
07FA
07FA
07FA
07FA
05E8
ENDCHAR
STARTCHAR Iacute
ENCODING 205
SWIDTH 269 0
DWIDTH 3 0
BBX 4 12 0 0
BITMAP
0385
9FFB
5950
3B60
7FA0
7FA0
7FA0
7FA0
7FA0
7FA0
7FA0
4E80
ENDCHAR
STARTCHAR Icircumflex
ENCODING 206
SWIDTH 270 0
DWIDTH 3 0
BBX 5 12 -1 0
BITMAP
159610
AFFFE0
372660
03B600
07FA00
07FA00
07FA00
07FA00
07FA00
07FA00
07FA00
04E800
ENDCHAR
STARTCHAR Idieresis
ENCODING 207
SWIDTH 268 0
DWIDTH 3 0
BBX 6 12 -1 0
BITMAP
890692
FF1CF5
550361
03B600
06FA00
06FB00
06FB00
06FB00
06FB00
06FB00
06FB00
04E800
ENDCHAR
STARTCHAR Eth
ENCODING 208
SWIDTH 775 0
DWIDTH 9 0
BBX 9 9 0 0
BITMAP
06CCCA5000
0AFFFFFA00
0AF959FF70
1BF9107FD0
AFFF703FF0
3CFA206FD0
0AF826EF80
0AFFFFFC10
08FFFD8100
ENDCHAR
STARTCHAR Ntilde
ENCODING 209
SWIDTH 720 0
DWIDTH 9 0
BBX 9 12 0 0
BITMAP
0049564000
00EFFF8000
0051560000
4B60009B10
8FF300EF20
8FFD10EF20
8FFFA0EF20
8FBEF7EF20
8F94FFFF20
8F908FFF20
8F900BFF20
6F7001DE10
ENDCHAR
STARTCHAR Ograve
ENCODING 210
SWIDTH 775 0
DWIDTH 9 0
BBX 9 13 0 -1
BITMAP
0017300000
005FFD1000
0005AC0000
004BDC7000
07FFFFFB00
3FF947EF70
8FB0006FD0
AF70003FF0
9F90005FD0
5FF613DF90
0AFFFFFD10
008EFFB200
0000210000
ENDCHAR
STARTCHAR Oacute
ENCODING 211
SWIDTH 775 0
DWIDTH 9 0
BBX 9 13 0 -1
BITMAP
0000484000
000BFF9000
0007940000
004BDC7000
07FFFFFB00
3FF947EF70
8FB0006FD0
AF70003FF0
9F90005FD0
5FF613DF90
0AFFFFFD10
008EFFB200
0000210000
ENDCHAR
STARTCHAR Ocircumflex
ENCODING 212
SWIDTH 775 0
DWIDTH 9 0
BBX 9 13 0 -1
BITMAP
0015972000
00AFFFE000
0037266000
004BDC7000
07FFFFFB00
3FF947EF70
8FB0006FD0
AF70003FF0
9F90005FD0
5FF613DF90
0AFFFFFD10
008EFFB200
0000210000
ENDCHAR
STARTCHAR Otilde
ENCODING 213
SWIDTH 775 0
DWIDTH 9 0
BBX 9 13 0 -1
BITMAP
0007938100
006FFFF200
0015273000
004BDC7000
07FFFFFB00
3FF947EF70
8FB0006FD0
AF70003FF0
9F90005FD0
5FF613DF90
0AFFFFFD10
008EFFB200
0000210000
ENDCHAR
STARTCHAR Odieresis
ENCODING 214
SWIDTH 775 0
DWIDTH 9 0
BBX 9 13 0 -1
BITMAP
0088069100
01FF1DF400
0055046100
004BDC7000
07FFFFFB00
3FF947EF70
8FB0006FD0
AF70003FF0
9F90005FD0
5FF613DF90
0AFFFFFD10
008EFFB200
0000210000
ENDCHAR
STARTCHAR multiply
ENCODING 215
SWIDTH 521 0
DWIDTH 6 0
BBX 6 6 0 0
BITMAP
5D31C9
7FECFB
08FFC1
1CFFE3
9FB8FD
281065
ENDCHAR
STARTCHAR Oslash
ENCODING 216
SWIDTH 775 0
DWIDTH 9 0
BBX 9 11 0 -1
BITMAP
0000005100
004BDCF900
07FFFFFC00
3FF98FFF70
8FB0CFBFD0
AF74FD3FF0
9F9CF65FE0
4FFFE4DF90
0AFFFFFD10
02FFFFB200
0075210000
ENDCHAR
STARTCHAR Ugrave
ENCODING 217
SWIDTH 726 0
DWIDTH 9 0
BBX 9 13 0 -1
BITMAP
0064000000
01FFE40000
0038D30000
4C50009B10
8F9000DF30
8F9000DF40
8F9000DF40
8F9000DF30
6FB000FF20
3FF418FD00
0AFFFFF600
01AFFE7000
0001200000
ENDCHAR
STARTCHAR Uacute
ENCODING 218
SWIDTH 726 0
DWIDTH 9 0
BBX 9 13 0 -1
BITMAP
0000484000
000BFF9000
0007940000
4C50009B10
8F9000DF30
8F9000DF40
8F9000DF40
8F9000DF30
6FB000FF20
3FF418FD00
0AFFFFF600
01AFFE7000
0001200000
ENDCHAR
STARTCHAR Ucircumflex
ENCODING 219
SWIDTH 726 0
DWIDTH 9 0
BBX 9 13 0 -1
BITMAP
0016961000
00CFFFC000
0047265000
4C50009B10
8F9000DF30
8F9000DF40
8F9000DF40
8F9000DF30
6FB000FF20
3FF418FD00
0AFFFFF600
01AFFE7000
0001200000
ENDCHAR
STARTCHAR Udieresis
ENCODING 220
SWIDTH 726 0
DWIDTH 9 0
BBX 9 13 0 -1
BITMAP
0296098000
05FC1FF100
0164055000
4C50009B10
8F9000DF30
8F9000DF40
8F9000DF40
8F9000DF30
6FB000FF20
3FF418FD00
0AFFFFF600
01AFFE7000
0001200000
ENDCHAR
STARTCHAR Yacute
ENCODING 221
SWIDTH 686 0
DWIDTH 8 0
BBX 8 12 0 0
BITMAP
00026800
005FFF10
002A6100
5D2001C8
AFC008FD
2EF63FF5
06FECFA0
00BFFE10
002FF500
000EF300
000EF300
000CE100
ENDCHAR
STARTCHAR Thorn
ENCODING 222
SWIDTH 634 0
DWIDTH 8 0
BBX 8 9 0 0
BITMAP
4B500000
8FC98300
8FFFFF70
8FC8AFF1
8F900DF4
8FB58FF2
8FFFFF90
8FECB600
5E700000
ENDCHAR
STARTCHAR germandbls
ENCODING 223
SWIDTH 633 0
DWIDTH 8 0
BBX 8 10 0 -1
BITMAP
08DFE900
5FFCFF30
7F91EF10
8F88F700
8F89FA10
8F81CFC0
8F800CF3
8F8BEFF3
7F8AFF90
15100000
ENDCHAR
STARTCHAR agrave
ENCODING 224
SWIDTH 596 0
DWIDTH 7 0
BBX 7 10 0 0
BITMAP
00210000
00EFB300
007CF500
00242410
09FFEFA0
5FFDFFA0
AF809FA0
9FB3CFA0
3FFFFFA0
04CE9E80
ENDCHAR
STARTCHAR aacute
ENCODING 225
SWIDTH 596 0
DWIDTH 7 0
BBX 7 10 0 0
BITMAP
00002100
007DF800
00BEA300
00341410
09FFEFA0
5FFDFFA0
AF809FA0
9FB3CFA0
3FFFFFA0
04CE9E80
ENDCHAR
STARTCHAR acircumflex
ENCODING 226
SWIDTH 596 0
DWIDTH 7 0
BBX 7 10 0 0
BITMAP
00032000
04DFFC20
03E9AE20
00241410
09FFEFA0
5FFDFFA0
AF809FA0
9FB3CFA0
3FFFFFA0
04CE9E80
ENDCHAR
STARTCHAR atilde
ENCODING 227
SWIDTH 596 0
DWIDTH 7 0
BBX 7 10 0 0
BITMAP
00230200
03FFCF30
04B7D900
00241410
09FFEFA0
5FFDFFA0
AF809FA0
9FB3CFA0
3FFFFFA0
04CE9E80
ENDCHAR
STARTCHAR adieresis
ENCODING 228
SWIDTH 596 0
DWIDTH 7 0
BBX 7 10 0 0
BITMAP
01401410
0BF58F80
08C35D60
00241410
09FFEFA0
5FFDFFA0
AF809FA0
9FB3CFA0
3FFFFFA0
04CE9E80
ENDCHAR
STARTCHAR aring
ENCODING 229
SWIDTH 596 0
DWIDTH 7 0
BBX 7 9 0 0
BITMAP
001BA000
0039A100
00284410
09FFEFA0
5FFDFFA0
AF809FA0
9FB3CFA0
3FFFFFA0
04CE9E80
ENDCHAR
STARTCHAR ae
ENCODING 230
SWIDTH 910 0
DWIDTH 11 0
BBX 11 8 0 -1
BITMAP
014520254000
3EFFFBFFFC10
5FD9FFF8CF80
0664CFD9CF80
6FDCEFD77710
AF86DFFCCE20
4EFF95DFFC20
001000010000
ENDCHAR
STARTCHAR ccedilla
ENCODING 231
SWIDTH 524 0
DWIDTH 6 0
BBX 6 10 0 -3
BITMAP
003640
09FFFC
6FFCFA
AF9010
9FC262
3FFFFD
04DFE6
006D90
006D90
001400
ENDCHAR
STARTCHAR egrave
ENCODING 232
SWIDTH 573 0
DWIDTH 7 0
BBX 7 11 0 -1
BITMAP
00300000
03FEA100
018DF200
00367100
0AFFFD10
6FE8DF70
AFC8CF70
9FD88710
4FFBBE10
07EFFD20
00022000
ENDCHAR
STARTCHAR eacute
ENCODING 233
SWIDTH 573 0
DWIDTH 7 0
BBX 7 11 0 -1
BITMAP
00003100
008DF700
00CEA300
00465100
0AFFFD10
6FE8DF70
AFC8CF70
9FD88710
4FFBBE10
07EFFD20
00022000
ENDCHAR
STARTCHAR ecircumflex
ENCODING 234
SWIDTH 573 0
DWIDTH 7 0
BBX 7 11 0 -1
BITMAP
00031000
08EFF900
08D8CA00
00365100
0AFFFD10
6FE8DF70
AFC8CF70
9FD88710
4FFBBE10
07EFFD20
00022000
ENDCHAR
STARTCHAR edieresis
ENCODING 235
SWIDTH 573 0
DWIDTH 7 0
BBX 7 11 0 -1
BITMAP
03202300
3FD0EF20
2CA0BC10
00365100
0AFFFD10
6FE8DF70
AFC8CF70
9FD88710
4FFBBE10
07EFFD20
00022000
ENDCHAR
STARTCHAR igrave
ENCODING 236
SWIDTH 255 0
DWIDTH 3 0
BBX 4 10 -1 0
BITMAP
0300
7FD8
3AEC
0152
07F8
08F9
08F9
08F9
08F9
06F7
ENDCHAR
STARTCHAR iacute
ENCODING 237
SWIDTH 255 0
DWIDTH 3 0
BBX 4 10 0 0
BITMAP
0021
6DF9
AFA4
2510
7F80
8F90
8F90
8F90
8F90
6F70
ENDCHAR
STARTCHAR icircumflex
ENCODING 238
SWIDTH 255 0
DWIDTH 3 0
BBX 5 10 -1 0
BITMAP
003100
8EFF90
9D8CA0
014100
07F800
08F900
08F900
08F900
08F900
06F700
ENDCHAR
STARTCHAR idieresis
ENCODING 239
SWIDTH 255 0
DWIDTH 3 0
BBX 7 10 -2 0
BITMAP
03202300
2FE0DF30
1CB0AC20
00141000
007F8000
008F9000
008F9000
008F9000
008F9000
006F7000
ENDCHAR
STARTCHAR eth
ENCODING 240
SWIDTH 585 0
DWIDTH 7 0
BBX 7 11 0 -1
BITMAP
00236000
01EF8000
00CEF500
0073BE10
06EFEF60
4FFCFF90
AF707FB0
9F909F90
3FFFFF30
05DFE500
00010000
ENDCHAR
STARTCHAR ntilde
ENCODING 241
SWIDTH 606 0
DWIDTH 7 0
BBX 7 10 0 0
BITMAP
00320200
06FFCE00
0799D600
14133000
7FDFFC10
8FFDFF70
8FA06FB0
8F905FC0
8F905FC0
6E603E90
ENDCHAR
STARTCHAR ograve
ENCODING 242
SWIDTH 600 0
DWIDTH 7 0
BBX 7 11 0 -1
BITMAP
00310000
01FEA200
008DF300
00366000
09FFFC10
6FFAEF90
AF805FD0
9FA18FC0
3FFFFF60
05DFE700
00010000
ENDCHAR
STARTCHAR oacute
ENCODING 243
SWIDTH 600 0
DWIDTH 7 0
BBX 7 11 0 -1
BITMAP
00002100
007DF800
00BEA300
00474000
09FFFC10
6FFAEF90
AF805FD0
9FA18FC0
3FFFFF60
05DFE700
00010000
ENDCHAR
STARTCHAR ocircumflex
ENCODING 244
SWIDTH 600 0
DWIDTH 7 0
BBX 7 11 0 -1
BITMAP
00031000
07EFFA00
07D8CB00
00364000
09FFFC10
6FFAEF90
AF805FD0
9FA18FC0
3FFFFF60
05DFE700
00010000
ENDCHAR
STARTCHAR otilde
ENCODING 245
SWIDTH 600 0
DWIDTH 7 0
BBX 7 11 0 -1
BITMAP
00320200
07FFCE00
0799D500
00364000
09FFFC10
6FFAEF90
AF805FD0
9FA18FC0
3FFFFF60
05DFE700
00010000
ENDCHAR
STARTCHAR odieresis
ENCODING 246
SWIDTH 600 0
DWIDTH 7 0
BBX 7 11 0 -1
BITMAP
03202300
2FE0DF30
1CB09C20
00364000
09FFFC10
6FFAEF90
AF805FD0
9FA18FC0
3FFFFF60
05DFE700
00010000
ENDCHAR
STARTCHAR divide
ENCODING 247
SWIDTH 503 0
DWIDTH 6 0
BBX 6 7 0 0
BITMAP
006600
00EE00
026721
AFFFFA
499995
00CD00
00CC00
ENDCHAR
STARTCHAR oslash
ENCODING 248
SWIDTH 600 0
DWIDTH 7 0
BBX 7 11 0 -2
BITMAP
00000200
00006F60
0036DF40
09FFFF10
6FFBEF90
AF805FD0
9FA18FC0
3FFFFF60
0CFFE700
3FE20000
2B600000
ENDCHAR
STARTCHAR ugrave
ENCODING 249
SWIDTH 606 0
DWIDTH 7 0
BBX 7 10 0 0
BITMAP
00310000
02FEA200
018DF300
15102420
7F804FC0
8F905FC0
8F905FC0
6FC39FC0
1EFFFFC0
04CD9E90
ENDCHAR
STARTCHAR uacute
ENCODING 250
SWIDTH 606 0
DWIDTH 7 0
BBX 7 10 0 0
BITMAP
00002200
005CFB00
008FB500
15110420
7F804FC0
8F905FC0
8F905FC0
6FC39FC0
1EFFFFC0
04CD9E90
ENDCHAR
STARTCHAR ucircumflex
ENCODING 251
SWIDTH 606 0
DWIDTH 7 0
BBX 7 10 0 0
BITMAP
00031000
06EFFB00
07D8CC00
15100420
7F804FC0
8F905FC0
8F905FC0
6FC39FC0
1EFFFFC0
04CD9E90
ENDCHAR
STARTCHAR udieresis
ENCODING 252
SWIDTH 606 0
DWIDTH 7 0
BBX 7 10 0 0
BITMAP
03302300
1FF1CF40
0BB09C20
15100420
7F804FC0
8F905FC0
8F905FC0
6FC39FC0
1EFFFFC0
04CD9E90
ENDCHAR
STARTCHAR yacute
ENCODING 253
SWIDTH 604 0
DWIDTH 7 0
BBX 7 13 0 -3
BITMAP
00002100
005CFA00
009FB400
15110420
AF702FE0
5FE19FB0
0CFAEF40
03FFFC00
009FF500
005FD000
00CF7000
03FE1000
01A70000
ENDCHAR
STARTCHAR thorn
ENCODING 254
SWIDTH 580 0
DWIDTH 7 0
BBX 7 13 0 -3
BITMAP
26100000
8F600000
8F700000
8F742000
8FEFF800
8FFDFF50
8F908F90
8FB2BF80
8FFFFF20
8FCEC400
8F600000
8F600000
4A300000
ENDCHAR
STARTCHAR ydieresis
ENCODING 255
SWIDTH 604 0
DWIDTH 7 0
BBX 7 13 0 -3
BITMAP
02301400
0EF2AF60
0AC17C40
15000420
AF702FE0
5FE19FB0
0CFAEF40
03FFFC00
009FF500
005FD000
00CF7000
03FE1000
01A70000
ENDCHAR
STARTCHAR dotlessi
ENCODING 305
SWIDTH 255 0
DWIDTH 3 0
BBX 3 7 0 0
BITMAP
1410
7F80
8F90
8F90
8F90
8F90
6F70
ENDCHAR
STARTCHAR Lslash
ENCODING 321
SWIDTH 687 0
DWIDTH 8 0
BBX 8 9 0 0
BITMAP
02B70000
05FC0000
05FC0000
05FED600
8FFFB400
5BFC0000
05FC0000
05FECCC9
03EFFFFC
ENDCHAR
STARTCHAR lslash
ENCODING 322
SWIDTH 468 0
DWIDTH 6 0
BBX 6 10 0 0
BITMAP
004100
06FA00
06FA00
06FA00
07FED4
9FFEA3
6BFA00
06FB00
05FFB0
01BFB0
ENDCHAR
STARTCHAR OE
ENCODING 338
SWIDTH 1092 0
DWIDTH 13 0
BBX 13 9 0 0
BITMAP
004ACCCCCCCC70
06FFFFFFFFFFB0
3FFA55FF555520
8FB001FF777100
AF7001FFFFF700
9FA001FFAAA300
4FF722FF222200
09FFFFFFFFFFB0
006CFFFFFFFF90
ENDCHAR
STARTCHAR oe
ENCODING 339
SWIDTH 944 0
DWIDTH 11 0
BBX 11 8 0 -1
BITMAP
003640145200
09FFFCEFFF50
6FFBEFFB9FE0
AF805FF99FE0
9FA18FF97730
3FFFFFFEBE70
05EFE7AEFD60
000100001000
ENDCHAR
STARTCHAR Scaron
ENCODING 352
SWIDTH 583 0
DWIDTH 7 0
BBX 7 13 0 -1
BITMAP
06838500
0CFFFC00
00585000
05CDC500
3FFFFF10
7FB17700
6FE84000
1BFFFD20
0038EF90
5E508FA0
8FFDFF60
08EFE700
00010000
ENDCHAR
STARTCHAR scaron
ENCODING 353
SWIDTH 489 0
DWIDTH 6 0
BBX 6 11 0 -1
BITMAP
030120
7FDEF1
29EC70
026620
3FFFF3
7FB570
3FFFA1
06BEF7
8FACF7
5DFFB1
001100
ENDCHAR
STARTCHAR Ydieresis
ENCODING 376
SWIDTH 686 0
DWIDTH 8 0
BBX 8 12 0 0
BITMAP
04A42960
08F85FC0
02621630
5D2001C8
AFC008FD
2EF63FF5
06FECFA0
00BFFE10
002FF500
000EF300
000EF300
000CE100
ENDCHAR
STARTCHAR Zcaron
ENCODING 381
SWIDTH 643 0
DWIDTH 8 0
BBX 8 12 0 0
BITMAP
02946800
07FFFF20
00386100
6CCCCCA1
AFFFFFF2
1446FF90
000BFD10
007FF300
03FF7000
1DFB1100
8FFFFFF4
7FFFFFF4
ENDCHAR
STARTCHAR zcaron
ENCODING 382
SWIDTH 586 0
DWIDTH 7 0
BBX 7 10 0 0
BITMAP
01201200
0AFCFD00
04AEB600
15555500
6FFFFF70
3BCEFE30
007FE300
09FE4200
8FFFFF90
7FFFFF90
ENDCHAR
STARTCHAR florin
ENCODING 402
SWIDTH 529 0
DWIDTH 6 0
BBX 7 12 0 -3
BITMAP
0004CD10
003FFF10
008F9100
0CFFED10
0FFFFE10
01EF4100
00FF1000
02FE0000
03FD0000
29FA0000
DFF40000
99500000
ENDCHAR
STARTCHAR circumflex
ENCODING 710
SWIDTH 603 0
DWIDTH 7 0
BBX 5 3 1 7
BITMAP
003100
7EFFA0
7D8CB0
ENDCHAR
STARTCHAR caron
ENCODING 711
SWIDTH 600 0
DWIDTH 7 0
BBX 5 3 1 7
BITMAP
120120
AFCFD0
4AEB60
ENDCHAR
STARTCHAR dotaccent
ENCODING 729
SWIDTH 285 0
DWIDTH 3 0
BBX 3 3 0 8
BITMAP
1740
4FC0
1850
ENDCHAR
STARTCHAR ring
ENCODING 730
SWIDTH 378 0
DWIDTH 5 0
BBX 4 3 0 8
BITMAP
1BD5
3A2B
1BD6
ENDCHAR
STARTCHAR ogonek
ENCODING 731
SWIDTH 570 0
DWIDTH 7 0
BBX 3 4 2 -3
BITMAP
1410
BC40
BD40
1400
ENDCHAR
STARTCHAR tilde
ENCODING 732
SWIDTH 584 0
DWIDTH 7 0
BBX 5 3 1 7
BITMAP
031210
BFEE90
B7BC30
ENDCHAR
STARTCHAR endash
ENCODING 8211
SWIDTH 561 0
DWIDTH 7 0
BBX 7 3 0 2
BITMAP
24444410
CFFFFF80
6AAAAA40
ENDCHAR
STARTCHAR emdash
ENCODING 8212
SWIDTH 693 0
DWIDTH 8 0
BBX 9 3 0 2
BITMAP
2444444300
CFFFFFFF10
6AAAAAA900
ENDCHAR
STARTCHAR quoteleft
ENCODING 8216
SWIDTH 237 0
DWIDTH 3 0
BBX 3 5 0 4
BITMAP
0760
5D10
9E50
AF80
2510
ENDCHAR
STARTCHAR quoteright
ENCODING 8217
SWIDTH 237 0
DWIDTH 3 0
BBX 3 5 0 4
BITMAP
6B40
AF80
2E50
6D10
3100
ENDCHAR
STARTCHAR quotesinglbase
ENCODING 8218
SWIDTH 237 0
DWIDTH 3 0
BBX 3 5 0 -2
BITMAP
1300
9F70
8F70
1E30
8800
ENDCHAR
STARTCHAR quotedblleft
ENCODING 8220
SWIDTH 482 0
DWIDTH 6 0
BBX 6 5 0 4
BITMAP
076085
5D16D1
9E5AE4
AF8BF7
251251
ENDCHAR
STARTCHAR quotedblright
ENCODING 8221
SWIDTH 482 0
DWIDTH 6 0
BBX 6 5 0 4
BITMAP
6B47C3
AF8BF7
2E53F4
6D18C0
310310
ENDCHAR
STARTCHAR quotedblbase
ENCODING 8222
SWIDTH 482 0
DWIDTH 6 0
BBX 6 5 0 -2
BITMAP
130130
9F7BF6
8F79F6
1E32F2
880970
ENDCHAR
STARTCHAR dagger
ENCODING 8224
SWIDTH 527 0
DWIDTH 6 0
BBX 7 12 0 -3
BITMAP
00BE1000
00DF3000
12DF4100
BFFFFF10
7BEFCA10
00DF3000
00DF3000
00DF3000
00DF3000
00DF3000
00DF2000
00230000
ENDCHAR
STARTCHAR daggerdbl
ENCODING 8225
SWIDTH 527 0
DWIDTH 6 0
BBX 7 12 0 -3
BITMAP
00BE1000
00DF3000
12DF4100
BFFFFF10
7BEFCA10
00DF3000
46EF8600
CFFFFF20
46EF8600
00DF3000
00DF2000
00230000
ENDCHAR
STARTCHAR bullet
ENCODING 8226
SWIDTH 342 0
DWIDTH 4 0
BBX 4 4 0 2
BITMAP
1771
8FFA
AFFB
4DD5
ENDCHAR
STARTCHAR ellipsis
ENCODING 8230
SWIDTH 911 0
DWIDTH 11 0
BBX 11 3 0 0
BITMAP
130013101310
9F709F808F80
8F608F607F70
ENDCHAR
STARTCHAR perthousand
ENCODING 8240
SWIDTH 1223 0
DWIDTH 15 0
BBX 15 11 0 -1
BITMAP
0000000400000000
08C8007B00000000
5FAF51E300000000
7D0D78A000000000
4FDF6E2000000000
0596992630056100
0002E4EFF47FFD00
000986E1C8C93F20
003E15F8E7BC9F10
00A700AFC13DF800
0030000000000000
ENDCHAR
STARTCHAR guilsinglleft
ENCODING 8249
SWIDTH 383 0
DWIDTH 5 0
BBX 5 7 0 0
BITMAP
001300
01BF40
1BFD10
AFE200
7FF500
07FF30
007D20
ENDCHAR
STARTCHAR guilsinglright
ENCODING 8250
SWIDTH 383 0
DWIDTH 5 0
BBX 5 7 0 0
BITMAP
130000
AF6000
6FF600
06FF40
0AFE20
9FE300
7D3000
ENDCHAR
STARTCHAR fraction
ENCODING 8260
SWIDTH 433 0
DWIDTH 5 0
BBX 7 11 0 -1
BITMAP
00000400
00002E10
0000A800
0003E100
000B7000
004D0000
00C60000
05D00000
0C500000
5C000000
12000000
ENDCHAR
STARTCHAR Euro
ENCODING 8364
SWIDTH 612 0
DWIDTH 7 0
BBX 7 10 0 0
BITMAP
00013420
007EFFF0
04FFEDB0
2BFC4410
BFFFFF50
3DF74410
BFFFFF40
08FB2210
02EFFFE0
003BEFD0
ENDCHAR
STARTCHAR trademark
ENCODING 8482
SWIDTH 840 0
DWIDTH 10 0
BBX 10 6 0 2
BITMAP
6999482074
9DFC6FD6F9
06F12FFFF9
06F12FCDE9
05F11F50D9
0010020010
ENDCHAR
STARTCHAR minus
ENCODING 8722
SWIDTH 581 0
DWIDTH 7 0
BBX 7 3 0 2
BITMAP
14444410
AFFFFF90
5AAAAA50
ENDCHAR
STARTCHAR f_f
ENCODING 64256
SWIDTH 803 0
DWIDTH 10 0
BBX 10 10 0 0
BITMAP
0014300340
02DFD0BFF1
09FE85FEB0
2CF849FB41
CFFFFFFFF6
8EFDCDFEB3
0BF607F900
0BF607F900
0BF607F900
09F405F700
ENDCHAR
STARTCHAR fi
ENCODING 64257
SWIDTH 709 0
DWIDTH 9 0
BBX 8 10 0 0
BITMAP
00132032
02DFD1FF
09FE90BB
1CF84033
BFFFF3FF
8EFDB2FF
0BF601FF
0BF601FF
0BF601FF
09F400DD
ENDCHAR
STARTCHAR fl
ENCODING 64258
SWIDTH 774 0
DWIDTH 9 0
BBX 10 10 0 0
BITMAP
0013203200
02DFD2FE00
09FE92FE00
1CF842FE00
BFFFF5FE00
8EFDB3FE00
0BF602FE00
0BF602FE00
0BF601FFE1
09F4008EE1
ENDCHAR
STARTCHAR f_f_i
ENCODING 64259
SWIDTH 1059 0
DWIDTH 13 0
BBX 13 10 0 0
BITMAP
00143003401200
02DFD0BFF1CF30
09FE85FEB09C20
2CF849FB412300
CFFFFFFFF6CF30
8EFDCDFEB3DF40
0BF607F900DF40
0BF607F900DF40
0BF607F900DF30
09F405F700BE20
ENDCHAR
STARTCHAR .notdef
ENCODING -1
SWIDTH 500 0
DWIDTH 6 0
BBX 1 1 0 0
BITMAP
00
ENDCHAR
STARTCHAR .null
ENCODING -1
SWIDTH 0 0
DWIDTH 0 0
BBX 1 1 0 0
BITMAP
00
ENDCHAR
STARTCHAR nonmarkingreturn
ENCODING -1
SWIDTH 333 0
DWIDTH 4 0
BBX 1 1 0 0
BITMAP
00
ENDCHAR
STARTCHAR f_t
ENCODING -1
SWIDTH 814 0
DWIDTH 10 0
BBX 10 10 0 0
BITMAP
0014300000
02DFD17300
09FE85FB00
2CF848FC41
CFFFFFFFF8
8EFDCDFEC5
0BF605FB00
0BF605FC00
0BF602FFE2
09F4006DE2
ENDCHAR
STARTCHAR t_t
ENCODING -1
SWIDTH 794 0
DWIDTH 10 0
BBX 10 9 0 0
BITMAP
0371027200
0BF509F700
2CF84AFA40
CFFFFFFFF4
8EFDCEFDC2
0BF609F800
0BF608F900
08FFB6FFD0
01AEB09ED0
ENDCHAR
STARTCHAR l_l
ENCODING -1
SWIDTH 626 0
DWIDTH 8 0
BBX 8 10 0 0
BITMAP
14104200
7F84FB00
8F94FC00
8F94FC00
8F94FC00
8F94FC00
8F94FC00
8F94FD10
6FF7FFF3
1BE56DD3
ENDCHAR
STARTCHAR j_j
ENCODING -1
SWIDTH 521 0
DWIDTH 6 0
BBX 8 13 -2 -3
BITMAP
00030021
007F74FB
005C52C8
00141042
007F84FB
008F84FC
008F84FC
008F84FC
008F84FC
008F84FB
15DF78FA
8FFD7FF6
5B814B70
ENDCHAR
ENDFONT
